<svg width="120" height="48" viewBox="0 0 222 48" fill="none" xmlns="http://www.w3.org/2000/svg">
<path d="M9.48864 39.5114C8.10606 39.5114 6.85133 39.2509 5.72443 38.7301C4.59754 38.1998 3.70265 37.4375 3.03977 36.4432C2.37689 35.4394 2.04545 34.2273 2.04545 32.8068C2.04545 31.5568 2.29167 30.5436 2.78409 29.767C3.27652 28.9811 3.93466 28.3655 4.75852 27.9205C5.58239 27.4754 6.49148 27.1439 7.4858 26.9261C8.48958 26.6989 9.49811 26.5189 10.5114 26.3864C11.8371 26.2159 12.9119 26.0881 13.7358 26.0028C14.5691 25.9081 15.1752 25.7519 15.554 25.5341C15.9422 25.3163 16.1364 24.9375 16.1364 24.3977V24.2841C16.1364 22.8826 15.7528 21.7936 14.9858 21.017C14.2282 20.2405 13.0777 19.8523 11.5341 19.8523C9.93371 19.8523 8.67898 20.2027 7.76989 20.9034C6.8608 21.6042 6.22159 22.3523 5.85227 23.1477L2.67045 22.0114C3.23864 20.6856 3.99621 19.6534 4.94318 18.9148C5.89962 18.1667 6.94129 17.6458 8.06818 17.3523C9.20455 17.0492 10.322 16.8977 11.4205 16.8977C12.1212 16.8977 12.9261 16.983 13.8352 17.1534C14.7538 17.3144 15.6392 17.6506 16.4915 18.1619C17.3532 18.6733 18.0682 19.4451 18.6364 20.4773C19.2045 21.5095 19.4886 22.892 19.4886 24.625V39H16.1364V36.0455H15.9659C15.7386 36.5189 15.3598 37.0256 14.8295 37.5653C14.2992 38.1051 13.5938 38.5644 12.7131 38.9432C11.8324 39.322 10.7576 39.5114 9.48864 39.5114ZM10 36.5C11.3258 36.5 12.4432 36.2396 13.3523 35.7188C14.2708 35.1979 14.9621 34.5256 15.4261 33.7017C15.8996 32.8778 16.1364 32.0114 16.1364 31.1023V28.0341C15.9943 28.2045 15.6818 28.3608 15.1989 28.5028C14.7254 28.6354 14.1761 28.7538 13.5511 28.858C12.9356 28.9527 12.3343 29.0379 11.7472 29.1136C11.1695 29.1799 10.7008 29.2367 10.3409 29.2841C9.4697 29.3977 8.6553 29.5824 7.89773 29.8381C7.14962 30.0843 6.54356 30.4583 6.07955 30.9602C5.625 31.4527 5.39773 32.125 5.39773 32.9773C5.39773 34.142 5.8286 35.0227 6.69034 35.6193C7.56155 36.2064 8.66477 36.5 10 36.5ZM25.6072 39V17.1818H28.8459V20.4773H29.0732C29.4709 19.3977 30.1906 18.5218 31.2322 17.8494C32.2739 17.1771 33.4482 16.8409 34.755 16.8409C35.0012 16.8409 35.3089 16.8456 35.6783 16.8551C36.0476 16.8646 36.3269 16.8788 36.5163 16.8977V20.3068C36.4027 20.2784 36.1423 20.2358 35.7351 20.179C35.3374 20.1127 34.916 20.0795 34.4709 20.0795C33.4103 20.0795 32.4633 20.3021 31.63 20.7472C30.8061 21.1828 30.1527 21.7888 29.6697 22.5653C29.1963 23.3324 28.9595 24.2083 28.9595 25.1932V39H25.6072ZM40.4901 39V17.1818H43.7287V20.4773H43.956C44.3537 19.3977 45.0734 18.5218 46.1151 17.8494C47.1567 17.1771 48.331 16.8409 49.6378 16.8409C49.884 16.8409 50.1918 16.8456 50.5611 16.8551C50.9304 16.8646 51.2098 16.8788 51.3991 16.8977V20.3068C51.2855 20.2784 51.0251 20.2358 50.6179 20.179C50.2202 20.1127 49.7988 20.0795 49.3537 20.0795C48.2931 20.0795 47.3461 20.3021 46.5128 20.7472C45.6889 21.1828 45.0355 21.7888 44.5526 22.5653C44.0791 23.3324 43.8423 24.2083 43.8423 25.1932V39H40.4901ZM61.7933 39.5114C60.4107 39.5114 59.156 39.2509 58.0291 38.7301C56.9022 38.1998 56.0073 37.4375 55.3445 36.4432C54.6816 35.4394 54.3501 34.2273 54.3501 32.8068C54.3501 31.5568 54.5964 30.5436 55.0888 29.767C55.5812 28.9811 56.2393 28.3655 57.0632 27.9205C57.8871 27.4754 58.7962 27.1439 59.7905 26.9261C60.7943 26.6989 61.8028 26.5189 62.8161 26.3864C64.1418 26.2159 65.2166 26.0881 66.0405 26.0028C66.8738 25.9081 67.4799 25.7519 67.8587 25.5341C68.2469 25.3163 68.4411 24.9375 68.4411 24.3977V24.2841C68.4411 22.8826 68.0575 21.7936 67.2905 21.017C66.5329 20.2405 65.3823 19.8523 63.8388 19.8523C62.2384 19.8523 60.9837 20.2027 60.0746 20.9034C59.1655 21.6042 58.5263 22.3523 58.157 23.1477L54.9751 22.0114C55.5433 20.6856 56.3009 19.6534 57.2479 18.9148C58.2043 18.1667 59.246 17.6458 60.3729 17.3523C61.5092 17.0492 62.6267 16.8977 63.7251 16.8977C64.4259 16.8977 65.2308 16.983 66.1399 17.1534C67.0585 17.3144 67.9439 17.6506 68.7962 18.1619C69.6579 18.6733 70.3729 19.4451 70.9411 20.4773C71.5092 21.5095 71.7933 22.892 71.7933 24.625V39H68.4411V36.0455H68.2706C68.0433 36.5189 67.6645 37.0256 67.1342 37.5653C66.6039 38.1051 65.8984 38.5644 65.0178 38.9432C64.1371 39.322 63.0623 39.5114 61.7933 39.5114ZM62.3047 36.5C63.6304 36.5 64.7479 36.2396 65.657 35.7188C66.5755 35.1979 67.2668 34.5256 67.7308 33.7017C68.2043 32.8778 68.4411 32.0114 68.4411 31.1023V28.0341C68.299 28.2045 67.9865 28.3608 67.5036 28.5028C67.0301 28.6354 66.4808 28.7538 65.8558 28.858C65.2403 28.9527 64.639 29.0379 64.0518 29.1136C63.4742 29.1799 63.0054 29.2367 62.6456 29.2841C61.7744 29.3977 60.96 29.5824 60.2024 29.8381C59.4543 30.0843 58.8482 30.4583 58.3842 30.9602C57.9297 31.4527 57.7024 32.125 57.7024 32.9773C57.7024 34.142 58.1333 35.0227 58.995 35.6193C59.8662 36.2064 60.9695 36.5 62.3047 36.5ZM79.2898 47.1818C78.7216 47.1818 78.215 47.1345 77.7699 47.0398C77.3248 46.9545 77.017 46.8693 76.8466 46.7841L77.6989 43.8295C78.5133 44.0379 79.233 44.1136 79.858 44.0568C80.483 44 81.0369 43.7206 81.5199 43.2188C82.0123 42.7263 82.4621 41.9261 82.8693 40.8182L83.4943 39.1136L75.4261 17.1818H79.0625L85.0852 34.5682H85.3125L91.3352 17.1818H94.9716L85.7102 42.1818C85.2936 43.3087 84.7775 44.2415 84.1619 44.9801C83.5464 45.7282 82.8314 46.2822 82.017 46.642C81.2121 47.0019 80.303 47.1818 79.2898 47.1818ZM99.8509 39V9.90909H103.374V22.8636H118.885V9.90909H122.408V39H118.885V25.9886H103.374V39H99.8509ZM138.153 39.4545C136.051 39.4545 134.238 38.9905 132.713 38.0625C131.198 37.125 130.028 35.8182 129.205 34.142C128.39 32.4564 127.983 30.4962 127.983 28.2614C127.983 26.0265 128.39 24.0568 129.205 22.3523C130.028 20.6383 131.174 19.303 132.642 18.3466C134.119 17.3807 135.843 16.8977 137.812 16.8977C138.949 16.8977 140.071 17.0871 141.179 17.4659C142.287 17.8447 143.295 18.4602 144.205 19.3125C145.114 20.1553 145.838 21.2727 146.378 22.6648C146.918 24.0568 147.188 25.7708 147.188 27.8068V29.2273H130.369V26.3295H143.778C143.778 25.0985 143.532 24 143.04 23.0341C142.557 22.0682 141.866 21.3059 140.966 20.7472C140.076 20.1884 139.025 19.9091 137.812 19.9091C136.477 19.9091 135.322 20.2405 134.347 20.9034C133.381 21.5568 132.637 22.4091 132.116 23.4602C131.596 24.5114 131.335 25.6383 131.335 26.8409V28.7727C131.335 30.4205 131.619 31.8172 132.188 32.9631C132.765 34.0994 133.565 34.9659 134.588 35.5625C135.611 36.1496 136.799 36.4432 138.153 36.4432C139.034 36.4432 139.83 36.3201 140.54 36.0739C141.259 35.8182 141.88 35.4394 142.401 34.9375C142.921 34.4261 143.324 33.7917 143.608 33.0341L146.847 33.9432C146.506 35.0417 145.933 36.0076 145.128 36.8409C144.323 37.6648 143.329 38.3087 142.145 38.7727C140.961 39.2273 139.631 39.4545 138.153 39.4545ZM155.639 9.90909V39H152.287V9.90909H155.639ZM161.779 47.1818V17.1818H165.018V20.6477H165.415C165.662 20.2689 166.003 19.786 166.438 19.1989C166.883 18.6023 167.518 18.072 168.342 17.608C169.175 17.1345 170.302 16.8977 171.722 16.8977C173.559 16.8977 175.179 17.357 176.58 18.2756C177.982 19.1941 179.076 20.4962 179.862 22.1818C180.647 23.8674 181.04 25.8561 181.04 28.1477C181.04 30.4583 180.647 32.4612 179.862 34.1562C179.076 35.8419 177.987 37.1487 176.594 38.0767C175.202 38.9953 173.597 39.4545 171.779 39.4545C170.378 39.4545 169.255 39.2225 168.413 38.7585C167.57 38.285 166.921 37.75 166.467 37.1534C166.012 36.5473 165.662 36.0455 165.415 35.6477H165.131V47.1818H161.779ZM165.075 28.0909C165.075 29.7386 165.316 31.1922 165.799 32.4517C166.282 33.7017 166.987 34.6818 167.915 35.392C168.844 36.0928 169.98 36.4432 171.325 36.4432C172.726 36.4432 173.896 36.0739 174.833 35.3352C175.78 34.5871 176.49 33.5833 176.964 32.3239C177.447 31.0549 177.688 29.6439 177.688 28.0909C177.688 26.5568 177.451 25.1742 176.978 23.9432C176.514 22.7027 175.808 21.7225 174.862 21.0028C173.924 20.2737 172.745 19.9091 171.325 19.9091C169.961 19.9091 168.815 20.2547 167.887 20.946C166.959 21.6278 166.258 22.5843 165.785 23.8153C165.311 25.0369 165.075 26.4621 165.075 28.0909ZM195.302 39.4545C193.2 39.4545 191.386 38.9905 189.862 38.0625C188.346 37.125 187.177 35.8182 186.353 34.142C185.539 32.4564 185.131 30.4962 185.131 28.2614C185.131 26.0265 185.539 24.0568 186.353 22.3523C187.177 20.6383 188.323 19.303 189.79 18.3466C191.268 17.3807 192.991 16.8977 194.961 16.8977C196.097 16.8977 197.219 17.0871 198.327 17.4659C199.435 17.8447 200.444 18.4602 201.353 19.3125C202.262 20.1553 202.987 21.2727 203.526 22.6648C204.066 24.0568 204.336 25.7708 204.336 27.8068V29.2273H187.518V26.3295H200.927C200.927 25.0985 200.681 24 200.188 23.0341C199.705 22.0682 199.014 21.3059 198.114 20.7472C197.224 20.1884 196.173 19.9091 194.961 19.9091C193.626 19.9091 192.47 20.2405 191.495 20.9034C190.529 21.5568 189.786 22.4091 189.265 23.4602C188.744 24.5114 188.484 25.6383 188.484 26.8409V28.7727C188.484 30.4205 188.768 31.8172 189.336 32.9631C189.914 34.0994 190.714 34.9659 191.737 35.5625C192.759 36.1496 193.948 36.4432 195.302 36.4432C196.183 36.4432 196.978 36.3201 197.688 36.0739C198.408 35.8182 199.028 35.4394 199.549 34.9375C200.07 34.4261 200.472 33.7917 200.756 33.0341L203.995 33.9432C203.654 35.0417 203.081 36.0076 202.276 36.8409C201.471 37.6648 200.477 38.3087 199.293 38.7727C198.11 39.2273 196.779 39.4545 195.302 39.4545ZM209.435 39V17.1818H212.674V20.4773H212.901C213.299 19.3977 214.019 18.5218 215.06 17.8494C216.102 17.1771 217.276 16.8409 218.583 16.8409C218.829 16.8409 219.137 16.8456 219.506 16.8551C219.876 16.8646 220.155 16.8788 220.344 16.8977V20.3068C220.231 20.2784 219.97 20.2358 219.563 20.179C219.165 20.1127 218.744 20.0795 218.299 20.0795C217.238 20.0795 216.291 20.3021 215.458 20.7472C214.634 21.1828 213.981 21.7888 213.498 22.5653C213.024 23.3324 212.788 24.2083 212.788 25.1932V39H209.435Z" fill="#20262C"/>
<path d="M97 35L96.8316 36.1077C96.7123 36.8872 96.5298 37.7214 96.2842 38.6103C96.0456 39.4991 95.7965 40.3368 95.5368 41.1231C95.2772 41.9094 95.0632 42.535 94.8947 43H93C93.0912 42.5624 93.2105 41.9846 93.3579 41.2667C93.5053 40.5487 93.6526 39.7453 93.8 38.8564C93.9544 37.9744 94.0807 37.0718 94.1789 36.1487L94.3053 35H97Z" fill="#8C85FF"/>
</svg>
