<svg width="15" height="15" viewBox="0 0 15 15" fill="none" xmlns="http://www.w3.org/2000/svg">
<path fill-rule="evenodd" clip-rule="evenodd" d="M3.75 2.25C3.75 1.00736 4.75736 0 6 0H12.75C13.9927 0 15 1.00736 15 2.25V9C15 10.2427 13.9927 11.25 12.75 11.25H11.25V12.75C11.25 13.9927 10.2427 15 9 15H2.25C1.00736 15 0 13.9927 0 12.75V6C0 4.75736 1.00736 3.75 2.25 3.75H3.75V2.25ZM5.25 3.75H9C10.2427 3.75 11.25 4.75736 11.25 6V9.75H12.75C13.1642 9.75 13.5 9.41422 13.5 9V2.25C13.5 1.83579 13.1642 1.5 12.75 1.5H6C5.58579 1.5 5.25 1.83579 5.25 2.25V3.75ZM2.25 5.25C1.83579 5.25 1.5 5.58579 1.5 6V12.75C1.5 13.1642 1.83579 13.5 2.25 13.5H9C9.41422 13.5 9.75 13.1642 9.75 12.75V6C9.75 5.58579 9.41422 5.25 9 5.25H2.25Z" fill="#B4B4B4"/>
</svg>
