<svg width="12" height="8" viewBox="0 0 14 10" fill="none" xmlns="http://www.w3.org/2000/svg">
<path d="M0.931818 10V7.44318C0.931818 6.66667 1.06913 5.8428 1.34375 4.97159C1.62784 4.09091 2.03504 3.24337 2.56534 2.42898C3.10511 1.60511 3.75379 0.89015 4.51136 0.28409L6.32955 1.76136C5.73295 2.61364 5.21212 3.50379 4.76705 4.43182C4.33144 5.35038 4.11364 6.33523 4.11364 7.38636V10H0.931818ZM8.20455 10V7.44318C8.20455 6.66667 8.34186 5.8428 8.61648 4.97159C8.90057 4.09091 9.30777 3.24337 9.83807 2.42898C10.3778 1.60511 11.0265 0.89015 11.7841 0.28409L13.6023 1.76136C13.0057 2.61364 12.4848 3.50379 12.0398 4.43182C11.6042 5.35038 11.3864 6.33523 11.3864 7.38636V10H8.20455Z" fill="#20262C"/>
</svg>
