<svg width="25" height="11" viewBox="0 0 25 11" fill="none" xmlns="http://www.w3.org/2000/svg">
<path d="M3.23864 0.119318V8.84659H2.18182V1.22727H2.13068L0 2.64205V1.56818L2.18182 0.119318H3.23864Z" fill="#20262C"/>
<path d="M6.75 7.65341L6.68182 8.11364C6.63352 8.4375 6.55966 8.78409 6.46023 9.15341C6.36364 9.52273 6.26278 9.87074 6.15767 10.1974C6.05256 10.5241 5.96591 10.7841 5.89773 10.9773H5.13068C5.16761 10.7955 5.21591 10.5554 5.27557 10.2571C5.33523 9.95881 5.39489 9.625 5.45455 9.25568C5.51705 8.8892 5.56818 8.5142 5.60795 8.13068L5.65909 7.65341H6.75Z" fill="#20262C"/>
<path d="M8.59624 8.84659V8.07955L11.4769 4.92614C11.815 4.55682 12.0934 4.2358 12.3121 3.96307C12.5309 3.6875 12.6928 3.42898 12.7979 3.1875C12.9059 2.94318 12.9599 2.6875 12.9599 2.42045C12.9599 2.11364 12.886 1.84801 12.7383 1.62358C12.5934 1.39915 12.3945 1.22585 12.1417 1.10369C11.8888 0.981534 11.6048 0.920455 11.2894 0.920455C10.9542 0.920455 10.6616 0.990057 10.4116 1.12926C10.1644 1.26562 9.97266 1.45739 9.83629 1.70455C9.70277 1.9517 9.63601 2.24148 9.63601 2.57386H8.63033C8.63033 2.0625 8.74822 1.61364 8.98402 1.22727C9.21982 0.840909 9.54084 0.539773 9.94709 0.323864C10.3562 0.107955 10.815 0 11.3235 0C11.8349 0 12.288 0.107955 12.6829 0.323864C13.0778 0.539773 13.3874 0.830966 13.6119 1.19744C13.8363 1.56392 13.9485 1.97159 13.9485 2.42045C13.9485 2.74148 13.8903 3.0554 13.7738 3.36222C13.6602 3.66619 13.4613 4.00568 13.1772 4.38068C12.896 4.75284 12.5053 5.20739 12.0053 5.74432L10.0451 7.84091V7.90909H14.1019V8.84659H8.59624Z" fill="#20262C"/>
<path d="M17.3789 7.65341L17.3107 8.11364C17.2624 8.4375 17.1886 8.78409 17.0891 9.15341C16.9925 9.52273 16.8917 9.87074 16.7866 10.1974C16.6815 10.5241 16.5948 10.7841 16.5266 10.9773H15.7596C15.7965 10.7955 15.8448 10.5554 15.9045 10.2571C15.9641 9.95881 16.0238 9.625 16.0835 9.25568C16.146 8.8892 16.1971 8.5142 16.2369 8.13068L16.288 7.65341H17.3789Z" fill="#20262C"/>
<path d="M21.8459 8.96591C21.2834 8.96591 20.782 8.86932 20.3416 8.67614C19.9041 8.48295 19.5561 8.21449 19.2976 7.87074C19.0419 7.52415 18.9027 7.12216 18.88 6.66477H19.9538C19.9766 6.94602 20.0732 7.18892 20.2436 7.39347C20.4141 7.59517 20.6371 7.75142 20.9126 7.86222C21.1882 7.97301 21.4936 8.02841 21.8288 8.02841C22.2038 8.02841 22.5362 7.96307 22.826 7.83239C23.1158 7.7017 23.343 7.51989 23.5078 7.28693C23.6726 7.05398 23.755 6.78409 23.755 6.47727C23.755 6.15625 23.6754 5.87358 23.5163 5.62926C23.3572 5.3821 23.1243 5.18892 22.8175 5.04972C22.5107 4.91051 22.1357 4.84091 21.6925 4.84091H20.9936V3.90341H21.6925C22.0391 3.90341 22.343 3.84091 22.6044 3.71591C22.8686 3.59091 23.0746 3.41477 23.2223 3.1875C23.3729 2.96023 23.4482 2.69318 23.4482 2.38636C23.4482 2.09091 23.3828 1.83381 23.2521 1.61506C23.1214 1.39631 22.9368 1.22585 22.6982 1.10369C22.4624 0.981534 22.1839 0.920455 21.8629 0.920455C21.5618 0.920455 21.2777 0.975852 21.0107 1.08665C20.7465 1.1946 20.5305 1.35227 20.3629 1.55966C20.1953 1.7642 20.1044 2.01136 20.0902 2.30114H19.0675C19.0845 1.84375 19.2223 1.44318 19.4808 1.09943C19.7393 0.752841 20.0774 0.482955 20.495 0.289773C20.9155 0.096591 21.3771 0 21.88 0C22.4197 0 22.8828 0.109375 23.2692 0.328125C23.6555 0.544034 23.9524 0.829545 24.1598 1.18466C24.3672 1.53977 24.4709 1.9233 24.4709 2.33523C24.4709 2.8267 24.3416 3.24574 24.0831 3.59233C23.8274 3.93892 23.4794 4.17898 23.0391 4.3125V4.38068C23.5902 4.47159 24.0206 4.70597 24.3303 5.08381C24.6399 5.45881 24.7947 5.9233 24.7947 6.47727C24.7947 6.9517 24.6655 7.37784 24.407 7.75568C24.1513 8.13068 23.8018 8.42614 23.3587 8.64205C22.9155 8.85795 22.4112 8.96591 21.8459 8.96591Z" fill="#20262C"/>
</svg>
