<svg width="39" height="11" viewBox="0 0 39 11" fill="none" xmlns="http://www.w3.org/2000/svg">
<path d="M1.224 3.204H0L1.152 0.48H1.932L1.224 3.204Z" fill="#20262C"/>
<path d="M2.793 1.164V0.168H5.049V8.844H3.945V1.164H2.793Z" fill="#20262C"/>
<path d="M7.27275 0.48H8.48475L7.33275 3.204H6.56475L7.27275 0.48Z" fill="#20262C"/>
<path d="M9.74175 10.572L9.54975 10.332C9.98975 9.996 10.2618 9.556 10.3658 9.012C10.1978 9.012 10.0618 8.956 9.95775 8.844C9.86175 8.74 9.81375 8.596 9.81375 8.412C9.81375 8.22 9.88975 8.056 10.0417 7.92C10.1938 7.784 10.3617 7.716 10.5457 7.716C10.7297 7.716 10.8698 7.768 10.9657 7.872C11.0617 7.976 11.1097 8.108 11.1097 8.268C11.1097 8.636 11.0098 8.996 10.8098 9.348C10.6178 9.708 10.4338 9.968 10.2578 10.128C10.0898 10.296 9.91775 10.444 9.74175 10.572Z" fill="#20262C"/>
<path d="M12.6868 0.48H13.8988L12.7468 3.204H11.9788L12.6868 0.48Z" fill="#20262C"/>
<path d="M14.8318 7.968C15.8478 7.152 16.6438 6.484 17.2198 5.964C17.7958 5.436 18.2798 4.888 18.6718 4.32C19.0718 3.744 19.2718 3.18 19.2718 2.628C19.2718 2.108 19.1438 1.7 18.8878 1.404C18.6398 1.1 18.2358 0.948 17.6758 0.948C17.1318 0.948 16.7078 1.12 16.4038 1.464C16.1078 1.8 15.9478 2.252 15.9238 2.82H14.8678C14.8998 1.924 15.1718 1.232 15.6838 0.744C16.1958 0.256 16.8558 0.0119998 17.6638 0.0119998C18.4878 0.0119998 19.1398 0.24 19.6198 0.696C20.1078 1.152 20.3518 1.78 20.3518 2.58C20.3518 3.244 20.1518 3.892 19.7518 4.524C19.3598 5.148 18.9118 5.7 18.4078 6.18C17.9038 6.652 17.2598 7.204 16.4758 7.836H20.6038V8.748H14.8318V7.968Z" fill="#20262C"/>
<path d="M22.2142 0.48H23.4262L22.2742 3.204H21.5062L22.2142 0.48Z" fill="#20262C"/>
<path d="M24.6832 10.572L24.4912 10.332C24.9312 9.996 25.2032 9.556 25.3072 9.012C25.1392 9.012 25.0032 8.956 24.8992 8.844C24.8032 8.74 24.7552 8.596 24.7552 8.412C24.7552 8.22 24.8312 8.056 24.9832 7.92C25.1352 7.784 25.3032 7.716 25.4872 7.716C25.6712 7.716 25.8112 7.768 25.9072 7.872C26.0032 7.976 26.0512 8.108 26.0512 8.268C26.0512 8.636 25.9512 8.996 25.7512 9.348C25.5592 9.708 25.3752 9.968 25.1992 10.128C25.0312 10.296 24.8592 10.444 24.6832 10.572Z" fill="#20262C"/>
<path d="M27.6282 0.48H28.8402L27.6882 3.204H26.9202L27.6282 0.48Z" fill="#20262C"/>
<path d="M29.8812 2.352C29.9372 1.616 30.2212 1.04 30.7332 0.624C31.2452 0.208 31.9092 0 32.7252 0C33.2692 0 33.7372 0.1 34.1292 0.3C34.5292 0.492 34.8292 0.756 35.0292 1.092C35.2372 1.428 35.3412 1.808 35.3412 2.232C35.3412 2.728 35.1972 3.156 34.9092 3.516C34.6292 3.876 34.2612 4.108 33.8052 4.212V4.272C34.3252 4.4 34.7372 4.652 35.0412 5.028C35.3452 5.404 35.4972 5.896 35.4972 6.504C35.4972 6.96 35.3932 7.372 35.1852 7.74C34.9772 8.1 34.6652 8.384 34.2492 8.592C33.8332 8.8 33.3332 8.904 32.7492 8.904C31.9012 8.904 31.2052 8.684 30.6612 8.244C30.1172 7.796 29.8132 7.164 29.7492 6.348H30.8052C30.8612 6.828 31.0572 7.22 31.3932 7.524C31.7292 7.828 32.1772 7.98 32.7372 7.98C33.2972 7.98 33.7212 7.836 34.0092 7.548C34.3052 7.252 34.4532 6.872 34.4532 6.408C34.4532 5.808 34.2532 5.376 33.8532 5.112C33.4532 4.848 32.8492 4.716 32.0412 4.716H31.7652V3.804H32.0532C32.7892 3.796 33.3452 3.676 33.7212 3.444C34.0972 3.204 34.2852 2.836 34.2852 2.34C34.2852 1.916 34.1452 1.576 33.8652 1.32C33.5932 1.064 33.2012 0.936 32.6892 0.936C32.1932 0.936 31.7932 1.064 31.4892 1.32C31.1852 1.576 31.0052 1.92 30.9492 2.352H29.8812Z" fill="#20262C"/>
<path d="M37.3196 0.48H38.5316L37.3796 3.204H36.6116L37.3196 0.48Z" fill="#20262C"/>
</svg>
