<svg width="36" height="37" viewBox="0 0 36 37" fill="none" xmlns="http://www.w3.org/2000/svg">
<path d="M18.0038 0C16.9656 0 15.9468 0.0959304 14.9567 0.269305L14.4734 5.52928C13.4495 5.82254 12.4803 6.23259 11.5738 6.758L7.6174 3.4001C5.94632 4.6155 4.48347 6.10976 3.30065 7.82675L6.57708 11.8917C6.06631 12.8219 5.65836 13.8202 5.37299 14.8708L0.262079 15.3702C0.093265 16.3873 0 17.4341 0 18.5104C0 19.5792 0.092689 20.6218 0.262115 21.641L5.37339 22.1376C5.65877 23.1883 6.06674 24.1865 6.57747 25.1168L3.30922 29.1817C4.48987 30.894 5.94301 32.3953 7.60941 33.6083L11.5741 30.242C12.4812 30.7679 13.449 31.1857 14.4737 31.4791L14.957 36.7391C15.9471 36.9125 16.9659 37 18.0041 37C19.0423 37 20.0529 36.9125 21.043 36.7391L21.5263 31.4791C22.551 31.1857 23.5188 30.7679 24.4259 30.242L28.3906 33.6083C30.0571 32.3953 31.5103 30.8939 32.6908 29.1817L29.4225 25.1168C29.9333 24.1865 30.3412 23.1883 30.6266 22.1376L35.7379 21.641C35.9073 20.6218 36 19.5792 36 18.5104C36 17.4434 35.9067 16.3973 35.7379 15.3797L30.6266 14.8832C30.3412 13.8325 29.9333 12.8343 29.4225 11.904L32.699 7.8391C31.5162 6.12204 30.0533 4.62782 28.3822 3.41245L24.4258 6.77035C23.5193 6.24494 22.5501 5.8349 21.5262 5.54163L21.0429 0.281659C20.0528 0.108284 19.0422 0.0123538 18.004 0.0123538L18.0038 0ZM18.0038 11.4539C21.7896 11.4539 24.8517 14.6082 24.8517 18.4977C24.8517 22.3873 21.7898 25.5416 18.0038 25.5416C14.2181 25.5416 11.148 22.3873 11.148 18.4977C11.148 14.6082 14.2181 11.4539 18.0038 11.4539Z" fill="#D5DFFF"/>
</svg>
