<svg width="14" height="16" viewBox="0 0 21 28" fill="none" xmlns="http://www.w3.org/2000/svg">
<path d="M19.1993 2.12817H13.4361V1.55351C13.4361 0.696976 12.7478 0 11.9017 0H8.84851C8.0022 0 7.31375 0.696976 7.31375 1.5536V2.12826H1.55066C0.695643 2.12826 0 2.81804 0 3.66577V4.68167C0 5.31883 0.392888 5.86656 0.95093 6.09954C1.12773 9.62157 2.15093 26.65 2.19697 27.4151C2.2167 27.7436 2.48888 28 2.81804 28H17.932C18.2612 28 18.5335 27.7436 18.5531 27.4151C18.5991 26.65 19.6222 9.62157 19.7991 6.09954C20.3572 5.86656 20.7501 5.31883 20.7501 4.68167V3.66568C20.7501 2.81795 20.0544 2.12817 19.1993 2.12817ZM8.5582 1.5536C8.5582 1.38311 8.68842 1.24444 8.84851 1.24444H11.9017C12.0617 1.24444 12.1918 1.38311 12.1918 1.5536V2.12826H8.55828L8.5582 1.5536ZM1.24426 3.66568C1.24426 3.50408 1.38168 3.37261 1.55048 3.37261H19.1992C19.368 3.37261 19.5054 3.50399 19.5054 3.66568V4.68159C19.5054 4.84327 19.368 4.97483 19.1992 4.97483H1.55057C1.38177 4.97483 1.24435 4.84336 1.24435 4.68159L1.24426 3.66568ZM17.3458 26.7555H3.40381C3.22115 23.7113 2.38346 9.71784 2.20293 6.21927H18.5466C18.3661 9.71784 17.5285 23.7113 17.3458 26.7555Z" fill="#DE2E24"/>
<path d="M10.375 8.45551C10.0313 8.45551 9.75275 8.73408 9.75275 9.07773V24.7318C9.75275 25.0755 10.0313 25.354 10.375 25.354C10.7186 25.354 10.9972 25.0755 10.9972 24.7318V9.07773C10.9972 8.73408 10.7186 8.45551 10.375 8.45551Z" fill="#DE2E24"/>
<path d="M6.17053 9.07018C6.15257 8.72707 5.8588 8.46245 5.51675 8.48129C5.17364 8.49916 4.90991 8.79187 4.92787 9.13507L5.74404 24.7643C5.76138 25.0964 6.03604 25.354 6.36484 25.354C6.37577 25.354 6.3868 25.3538 6.39782 25.3532C6.74093 25.3353 7.00466 25.0426 6.98671 24.6994L6.17053 9.07018Z" fill="#DE2E24"/>
<path d="M15.2332 8.48133C14.8866 8.46151 14.5974 8.72702 14.5794 9.07021L13.7631 24.6994C13.7451 25.0426 14.0088 25.3353 14.352 25.3532C14.3631 25.3538 14.374 25.3541 14.3849 25.3541C14.7136 25.3541 14.9884 25.0965 15.0057 24.7643L15.8221 9.1351C15.84 8.7919 15.5764 8.49919 15.2332 8.48133Z" fill="#DE2E24"/>
</svg>
